<svg width="65" height="65" viewBox="0 0 65 65" fill="none" xmlns="http://www.w3.org/2000/svg">
<circle cx="32.6016" cy="32.3682" r="32" fill="#EDA623"/>
<g clip-path="url(#clip0_6130_584)">
<mask id="mask0_6130_584" style="mask-type:luminance" maskUnits="userSpaceOnUse" x="17" y="17" width="31" height="31">
<path d="M47.5372 17.6152H17.6597V47.4928H47.5372V17.6152Z" fill="white"/>
</mask>
<g mask="url(#mask0_6130_584)">
<path d="M21.8544 27.3135C20.8253 27.3135 20.0063 28.1324 20.0063 29.1615V36.8595C20.0063 37.8886 20.8253 38.7075 21.8544 38.7075C22.8836 38.7075 23.7025 37.8886 23.7025 36.8595V29.1615C23.7025 28.1324 22.8836 27.3135 21.8544 27.3135ZM43.4086 27.3135C42.3795 27.3135 41.5605 28.1324 41.5605 29.1615V36.8595C41.5605 37.8886 42.3795 38.7075 43.4086 38.7075C44.4377 38.7075 45.2567 37.8886 45.2567 36.8595V29.1615C45.2567 28.1324 44.4377 27.3135 43.4086 27.3135Z" fill="white"/>
<path d="M29.5521 36.0986C28.523 36.0986 27.7041 36.9175 27.7041 37.9467V45.6447C27.7041 46.6737 28.523 47.4926 29.5521 47.4926C30.5813 47.4926 31.4002 46.6737 31.4002 45.6447V37.9467C31.4002 36.9175 30.5813 36.0986 29.5521 36.0986ZM35.7105 36.0986C34.6813 36.0986 33.8624 36.9175 33.8624 37.9467V45.6447C33.8624 46.6737 34.6813 47.4926 35.7105 47.4926C36.7396 47.4926 37.5585 46.6737 37.5585 45.6447V37.9467C37.5585 36.9175 36.7396 36.0986 35.7105 36.0986Z" fill="white"/>
<path d="M27.5151 17.6152C27.4714 17.6157 27.4307 17.627 27.3906 17.6492C27.2588 17.7223 27.2155 17.8737 27.2887 18.0058L28.5905 20.3576C26.0859 21.6609 24.394 24.1376 24.3906 26.9801H40.8731C40.8699 24.1376 39.178 21.6609 36.6734 20.3576L37.9752 18.0058C38.0484 17.8737 38.0051 17.7223 37.8733 17.6492C37.8332 17.627 37.7924 17.6157 37.7488 17.6152C37.6553 17.6143 37.5666 17.6611 37.5167 17.7511L36.1979 20.1284C35.119 19.6498 33.909 19.3812 32.6319 19.3812C31.355 19.3812 30.1448 19.6498 29.066 20.1284L27.7471 17.7511C27.6972 17.6611 27.6086 17.6143 27.5151 17.6152ZM24.3906 27.631V39.5769C24.3906 40.6807 25.2793 41.5694 26.383 41.5694H38.8808C39.9847 41.5694 40.8731 40.6807 40.8731 39.5769V27.631H24.3906Z" fill="white"/>
<path d="M28.8278 22.5879C28.4516 22.5879 28.1401 22.8993 28.1401 23.2756C28.1401 23.6519 28.4516 23.9634 28.8278 23.9634C29.2041 23.9634 29.5156 23.6519 29.5156 23.2756C29.5156 22.8993 29.2041 22.5879 28.8278 22.5879ZM36.4352 22.5879C36.0589 22.5879 35.7474 22.8993 35.7474 23.2756C35.7474 23.6519 36.0589 23.9634 36.4352 23.9634C36.8115 23.9634 37.1229 23.6519 37.1229 23.2756C37.1229 22.8993 36.8115 22.5879 36.4352 22.5879Z" fill="#EDA623"/>
</g>
</g>
<defs>
<clipPath id="clip0_6130_584">
<rect width="30.4873" height="30.4873" fill="white" transform="translate(17.3579 17.125)"/>
</clipPath>
</defs>
</svg>
