<svg width="65" height="65" viewBox="0 0 65 65" fill="none" xmlns="http://www.w3.org/2000/svg">
<circle cx="32.6016" cy="32.3682" r="32" fill="#EDA623"/>
<mask id="mask0_6130_583" style="mask-type:luminance" maskUnits="userSpaceOnUse" x="17" y="17" width="31" height="31">
<path d="M47.6016 17.3682H17.6016V47.3682H47.6016V17.3682Z" fill="white"/>
</mask>
<g mask="url(#mask0_6130_583)">
<mask id="mask1_6130_583" style="mask-type:luminance" maskUnits="userSpaceOnUse" x="17" y="17" width="25" height="31">
<path d="M41.8264 31.2113L33.7509 39.2896L41.8264 47.3679H32.5985L24.5202 39.2896L32.5985 31.2113H41.8264ZM32.5985 17.3682L17.6001 32.3666L22.2155 36.982L41.8264 17.3682H32.5985Z" fill="white"/>
</mask>
<g mask="url(#mask1_6130_583)">
<path d="M24.5234 39.2902L29.136 43.9056L41.8267 31.2119H32.5989L24.5234 39.2902Z" fill="white" fill-opacity="0.8"/>
</g>
<mask id="mask2_6130_583" style="mask-type:luminance" maskUnits="userSpaceOnUse" x="17" y="17" width="25" height="31">
<path d="M41.8264 31.2113L33.7509 39.2896L41.8264 47.3679H32.5985L24.5202 39.2896L32.5985 31.2113H41.8264ZM32.5985 17.3682L17.6001 32.3666L22.2155 36.982L41.8264 17.3682H32.5985Z" fill="white"/>
</mask>
<g mask="url(#mask2_6130_583)">
<path d="M32.5985 17.3682H41.8264L22.2155 36.982L17.6001 32.3666L32.5985 17.3682Z" fill="white" fill-opacity="0.8"/>
</g>
<mask id="mask3_6130_583" style="mask-type:luminance" maskUnits="userSpaceOnUse" x="17" y="17" width="25" height="31">
<path d="M41.8264 31.2113L33.7509 39.2896L41.8264 47.3679H32.5985L24.5202 39.2896L32.5985 31.2113H41.8264ZM32.5985 17.3682L17.6001 32.3666L22.2155 36.982L41.8264 17.3682H32.5985Z" fill="white"/>
</mask>
<g mask="url(#mask3_6130_583)">
<path d="M29.1362 43.9044L32.5992 47.3645H41.827L33.7516 39.2891L29.1362 43.9044Z" fill="white"/>
</g>
<mask id="mask4_6130_583" style="mask-type:luminance" maskUnits="userSpaceOnUse" x="17" y="17" width="25" height="31">
<path d="M41.8264 31.2113L33.7509 39.2896L41.8264 47.3679H32.5985L24.5202 39.2896L32.5985 31.2113H41.8264ZM32.5985 17.3682L17.6001 32.3666L22.2155 36.982L41.8264 17.3682H32.5985Z" fill="white"/>
</mask>
<g mask="url(#mask4_6130_583)">
<path d="M35.9813 41.5332L33.7516 39.2891L29.1362 43.9044L35.9813 41.5332Z" fill="url(#paint0_linear_6130_583)"/>
</g>
<mask id="mask5_6130_583" style="mask-type:luminance" maskUnits="userSpaceOnUse" x="17" y="17" width="25" height="31">
<path d="M41.8264 31.2113L33.7509 39.2896L41.8264 47.3679H32.5985L24.5202 39.2896L32.5985 31.2113H41.8264ZM32.5985 17.3682L17.6001 32.3666L22.2155 36.982L41.8264 17.3682H32.5985Z" fill="white"/>
</mask>
<g mask="url(#mask5_6130_583)">
<path d="M24.5234 39.2873L29.139 34.6719L33.7547 39.2873L29.139 43.9029L24.5234 39.2873Z" fill="white"/>
</g>
<path d="M41.8268 31.2113L33.7514 39.2896L41.8268 47.3679H32.599L24.5207 39.2896L32.599 31.2113H41.8268ZM32.599 17.3682L17.6006 32.3666L22.2159 36.982L41.8268 17.3682H32.599Z" fill="url(#paint1_radial_6130_583)"/>
</g>
<defs>
<linearGradient id="paint0_linear_6130_583" x1="30.4831" y1="44.7951" x2="33.9206" y2="41.3577" gradientUnits="userSpaceOnUse">
<stop stop-color="#1A237E" stop-opacity="0.4"/>
<stop offset="1" stop-color="#1A237E" stop-opacity="0"/>
</linearGradient>
<radialGradient id="paint1_radial_6130_583" cx="0" cy="0" r="1" gradientUnits="userSpaceOnUse" gradientTransform="translate(18.2812 19.4129) scale(36.7011)">
<stop stop-color="white" stop-opacity="0.1"/>
<stop offset="1" stop-color="white" stop-opacity="0"/>
</radialGradient>
</defs>
</svg>
