<svg width="65" height="65" viewBox="0 0 65 65" fill="none" xmlns="http://www.w3.org/2000/svg">
<circle cx="32.6016" cy="32.3682" r="32" fill="#EDA623"/>
<path d="M38.374 17.3682C38.4438 17.3682 38.5137 17.3682 38.5874 17.3682C38.7587 19.4838 37.9512 21.0646 36.9697 22.2094C36.0068 23.3462 34.6882 24.4489 32.5554 24.2816C32.4131 22.1962 33.222 20.7326 34.202 19.5905C35.111 18.5261 36.7774 17.5789 38.374 17.3682Z" fill="#FEFEFE"/>
<path d="M44.8307 39.389C44.8307 39.41 44.8307 39.4285 44.8307 39.4482C44.2313 41.2635 43.3764 42.8193 42.333 44.2631C41.3806 45.5739 40.2134 47.3378 38.1294 47.3378C36.3286 47.3378 35.1325 46.1799 33.2869 46.1482C31.3346 46.1166 30.261 47.1165 28.476 47.3681C28.2718 47.3681 28.0676 47.3681 27.8674 47.3681C26.5566 47.1784 25.4988 46.1403 24.7282 45.205C22.4558 42.4412 20.6997 38.8713 20.373 34.3027C20.373 33.8548 20.373 33.4082 20.373 32.9604C20.5114 29.6908 22.1001 27.0324 24.2118 25.744C25.3262 25.059 26.8583 24.4754 28.5643 24.7362C29.2954 24.8496 30.0423 25.0998 30.697 25.3475C31.3175 25.5859 32.0934 26.0088 32.8284 25.9864C33.3264 25.9719 33.8217 25.7124 34.3236 25.5293C35.7938 24.9984 37.235 24.3898 39.1346 24.6757C41.4175 25.0208 43.0378 26.0352 44.039 27.6002C42.1078 28.8292 40.581 30.6814 40.8418 33.8443C41.0736 36.7174 42.744 38.3983 44.8307 39.389Z" fill="#FEFEFE"/>
</svg>
