<svg width="79" height="79" viewBox="0 0 79 79" fill="none" xmlns="http://www.w3.org/2000/svg">
<g filter="url(#filter0_d_5789_1985)">
<circle cx="39.7349" cy="37.4297" r="32" fill="#8D50ED"/>
<path d="M26.6099 22.4297L29.0005 49.4297L39.7349 52.4297L50.4655 49.4316L52.8599 22.4297H26.6099ZM47.7486 31.2591L47.4467 34.6509L46.5374 44.8209L39.7349 46.6997L39.7311 46.7016L32.9342 44.8191L32.458 39.5016H35.788L36.0355 42.2616L39.7311 43.2591L39.7349 43.2553L43.4342 42.2578L43.9386 37.6622L32.2986 37.6941L31.9686 34.5497L44.218 34.4072L44.4655 31.0416L31.6405 31.0772L31.4249 27.9497H39.7349H48.0449L47.7486 31.2591Z" fill="white"/>
</g>
<defs>
<filter id="filter0_d_5789_1985" x="0.734863" y="0.429688" width="78" height="78" filterUnits="userSpaceOnUse" color-interpolation-filters="sRGB">
<feFlood flood-opacity="0" result="BackgroundImageFix"/>
<feColorMatrix in="SourceAlpha" type="matrix" values="0 0 0 0 0 0 0 0 0 0 0 0 0 0 0 0 0 0 127 0" result="hardAlpha"/>
<feOffset dy="2"/>
<feGaussianBlur stdDeviation="3.5"/>
<feComposite in2="hardAlpha" operator="out"/>
<feColorMatrix type="matrix" values="0 0 0 0 0 0 0 0 0 0 0 0 0 0 0 0 0 0 0.25 0"/>
<feBlend mode="normal" in2="BackgroundImageFix" result="effect1_dropShadow_5789_1985"/>
<feBlend mode="normal" in="SourceGraphic" in2="effect1_dropShadow_5789_1985" result="shape"/>
</filter>
</defs>
</svg>
