<svg width="65" height="64" viewBox="0 0 65 64" fill="none" xmlns="http://www.w3.org/2000/svg">
<circle cx="32.7349" cy="31.999" r="32" fill="#C929CC"/>
<path d="M32.7346 16.999C32.3303 16.999 31.9371 17.0825 31.589 17.2795L20.5761 23.6394C19.8634 24.0501 19.4302 24.8255 19.4302 25.6507V38.3473C19.4302 39.1718 19.8634 39.9462 20.5761 40.358L23.4521 42.0183C24.8496 42.707 25.3647 42.6962 26.0006 42.6962C28.0695 42.6962 29.2508 41.4408 29.2508 39.2592V26.726C29.2508 26.5489 29.0974 26.4222 28.9235 26.4222H27.544C27.3672 26.4222 27.2167 26.5489 27.2167 26.726V39.2592C27.2167 40.2261 26.2093 41.1987 24.5746 40.3814L21.5815 38.6278C21.4756 38.5703 21.3944 38.4686 21.3944 38.3473V25.6503C21.3944 25.5301 21.4746 25.4076 21.5815 25.3465L32.5711 19.0103C32.6208 18.9813 32.6772 18.966 32.7347 18.966C32.7922 18.966 32.8487 18.9813 32.8984 19.0103L43.8882 25.3468C43.9929 25.4099 44.0754 25.5265 44.0754 25.651V38.3477C44.0754 38.4689 44.0143 38.593 43.9116 38.6515L32.8984 44.988C32.8041 45.0442 32.6741 45.0442 32.5711 44.988L29.7418 43.3046C29.6988 43.2812 29.6506 43.269 29.6016 43.269C29.5526 43.269 29.5044 43.2812 29.4614 43.3046C28.6804 43.7472 28.5335 43.7986 27.801 44.0527C27.6207 44.1158 27.3467 44.2136 27.8946 44.5207L31.589 46.6948C31.9373 46.8958 32.3328 47.0007 32.7349 46.999C33.137 47.0015 33.5325 46.8966 33.8804 46.6951L44.8937 40.3583C45.6064 39.944 46.0393 39.1721 46.0393 38.3477V25.6507C46.0393 24.8259 45.6064 24.0518 44.8937 23.64L33.8804 17.2801C33.5353 17.0829 33.1395 16.9993 32.7349 16.9993L32.7346 16.999Z" fill="white"/>
<path d="M35.681 26.0713C32.5449 26.0713 30.6773 27.406 30.6773 29.6256C30.6773 32.0331 32.531 32.6947 35.5409 32.9924C39.1417 33.345 39.4222 33.8738 39.4222 34.5825C39.4222 35.8119 38.442 36.3361 36.1256 36.3361C33.2147 36.3361 32.5752 35.6095 32.361 34.1617C32.3357 34.0063 32.2157 33.8809 32.0568 33.8809H30.6305C30.455 33.8809 30.3032 34.0323 30.3032 34.2085C30.3032 36.0619 31.3113 38.2535 36.1256 38.2535C39.6104 38.2535 41.6204 36.8857 41.6204 34.4889C41.6204 32.1133 39.9967 31.4754 36.6163 31.0285C33.2008 30.5765 32.8751 30.3552 32.8751 29.5554C32.8751 28.895 33.1514 28.0117 35.681 28.0117C37.9409 28.0117 38.7761 28.4992 39.1183 30.0231C39.1482 30.166 39.2743 30.2801 39.4222 30.2801H40.8489C40.9366 30.2801 41.0217 30.2262 41.0825 30.1631C41.1423 30.0959 41.1846 30.0201 41.1761 29.9295C40.9551 27.3056 39.2054 26.0713 35.681 26.0713Z" fill="white"/>
</svg>
