<svg width="65" height="65" viewBox="0 0 65 65" fill="none" xmlns="http://www.w3.org/2000/svg">
<circle cx="32.6016" cy="32.9375" r="32" fill="#F87979"/>
<g style="mix-blend-mode:luminosity">
<mask id="mask0_5789_1970" style="mask-type:luminance" maskUnits="userSpaceOnUse" x="14" y="16" width="37" height="38">
<path d="M50.8054 16.7334H14.3975V53.1416H50.8054V16.7334Z" fill="white"/>
</mask>
<g mask="url(#mask0_5789_1970)">
<path d="M22.341 19.6387L32.6015 18.5518L42.862 19.6387L50.8054 30.3242L32.6015 51.5662L14.3975 30.3242L22.341 19.6387Z" fill="#FDB300"/>
<path d="M21.771 30.3281L32.6014 51.5701L14.3975 30.3281H21.771Z" fill="#EA6C00"/>
<path d="M43.4349 30.3281L32.6045 51.5701L50.8086 30.3281H43.4349Z" fill="#EA6C00"/>
<path d="M21.7725 30.3281H43.4335L32.6029 51.5701L21.7725 30.3281Z" fill="#FDAD00"/>
<path d="M32.6029 18.5518L22.3424 19.6387L21.7725 30.3242L32.6029 18.5518Z" fill="#FDD231"/>
<path d="M32.6045 18.5518L42.8651 19.6387L43.4349 30.3242L32.6045 18.5518Z" fill="#FDD231"/>
<path d="M50.8079 30.3222L42.8643 19.6367L43.4343 30.3222H50.8079Z" fill="#FDAD00"/>
<path d="M14.3975 30.3222L22.341 19.6367L21.771 30.3222H14.3975Z" fill="#FDAD00"/>
<path d="M32.6029 18.5518L21.7725 30.3242H43.4335L32.6029 18.5518Z" fill="#FEEEB7"/>
</g>
</g>
</svg>
