<svg width="65" height="64" viewBox="0 0 65 64" fill="none" xmlns="http://www.w3.org/2000/svg">
<circle cx="32.7354" cy="31.999" r="32" fill="#C929CC"/>
<path d="M51.7384 42.4529C50.356 42.8044 49.5006 42.4683 48.7334 41.3162L43.2769 33.7671L42.4883 32.7219L36.1163 41.3412C35.3883 42.3782 34.6245 42.8294 33.2658 42.4624L41.4255 31.5093L33.8288 21.6156C35.1353 21.3615 36.0379 21.4909 36.8396 22.6608L42.4991 30.3038L48.2002 22.7024C48.9307 21.6655 49.7156 21.2712 51.0268 21.6536L48.0813 25.5588L44.0906 30.7551C43.6155 31.3489 43.6809 31.7552 44.118 32.3288L51.7384 42.4529ZM13.7409 31.3264L14.4084 28.0435C16.2256 21.5467 23.6726 18.8471 28.8083 22.8615C31.8097 25.2227 32.5556 28.5626 32.4071 32.3039H15.4893C15.2351 39.0382 20.0822 43.1025 26.2618 41.029C28.4294 40.3008 29.7062 38.6035 30.3452 36.4799C30.6695 35.4157 31.2063 35.2494 32.2064 35.5535C31.6957 38.2092 30.5436 40.4279 28.1088 41.8162C24.4708 43.8947 19.2781 43.2225 16.5463 40.334C14.9192 38.6582 14.2469 36.5345 13.9452 34.2636C13.8977 33.8883 13.8027 33.5308 13.7314 33.1709C13.7378 32.5565 13.7409 31.942 13.7409 31.3276V31.3264ZM15.5201 30.8751H30.8084C30.7087 26.0054 27.6764 22.5468 23.5325 22.5171C18.9835 22.4815 15.7173 25.8581 15.5201 30.8751Z" fill="white"/>
</svg>
