<svg width="65" height="65" viewBox="0 0 65 65" fill="none" xmlns="http://www.w3.org/2000/svg">
<circle cx="32.6016" cy="32.9375" r="32" fill="#F87979"/>
<mask id="mask0_5789_1969" style="mask-type:luminance" maskUnits="userSpaceOnUse" x="17" y="17" width="31" height="31">
<path d="M47.6014 17.9375H17.6016V47.9375H47.6014V17.9375Z" fill="white"/>
</mask>
<g mask="url(#mask0_5789_1969)">
<path d="M27.5477 47.9375C30.3194 47.9375 32.5689 45.6976 32.5689 42.9376V37.9375H27.5477C24.7759 37.9375 22.5264 40.1776 22.5264 42.9376C22.5264 45.6976 24.7759 47.9375 27.5477 47.9375Z" fill="white"/>
<path d="M22.5264 32.9385C22.5264 30.1785 24.7759 27.9385 27.5477 27.9385H32.5689V37.9385H27.5477C24.7759 37.9385 22.5264 35.6985 22.5264 32.9385Z" fill="white"/>
<path d="M22.5264 22.9375C22.5264 20.1775 24.7759 17.9375 27.5477 17.9375H32.5689V27.9375H27.5477C24.7759 27.9375 22.5264 25.6975 22.5264 22.9375Z" fill="white"/>
<path opacity="0.9" d="M32.5703 17.9375H37.5916C40.3633 17.9375 42.6128 20.1775 42.6128 22.9375C42.6128 25.6975 40.3633 27.9375 37.5916 27.9375H32.5703V17.9375Z" fill="white"/>
<path opacity="0.6" d="M42.6128 32.9385C42.6128 35.6985 40.3633 37.9385 37.5916 37.9385C34.8198 37.9385 32.5703 35.6985 32.5703 32.9385C32.5703 30.1785 34.8198 27.9385 37.5916 27.9385C40.3633 27.9385 42.6128 30.1785 42.6128 32.9385Z" fill="white"/>
</g>
</svg>
