<svg width="20" height="15" viewBox="0 0 20 15" fill="none" xmlns="http://www.w3.org/2000/svg">
<path d="M19.8801 12.966C19.8272 13.1309 19.7744 13.2911 19.7071 13.5046C17.7327 11.4713 15.7823 9.46231 13.8799 7.50183C15.7727 5.55105 17.7279 3.54204 19.7071 1.50391C19.7744 1.71257 19.8272 1.87756 19.8801 2.04255C19.8801 5.68207 19.8801 9.32644 19.8801 12.966Z" fill="#0F0F0F"/>
<path d="M18.881 0.672293C18.8301 0.728174 18.7885 0.774741 18.7469 0.816652C16.3796 3.19158 14.0124 5.56185 11.6452 7.93678C11.1366 8.44902 10.5356 8.64926 9.84665 8.39314C9.6016 8.30467 9.36118 8.14168 9.17162 7.95541C6.77665 5.57117 4.3863 3.17295 1.99596 0.779398C1.96822 0.751458 1.94048 0.714204 1.88037 0.64901C2.11155 0.597786 2.31036 0.551219 2.50917 0.513965C2.57852 0.499995 2.64787 0.504651 2.7126 0.504651C7.83081 0.504651 12.949 0.504651 18.0672 0.504651C18.3493 0.504651 18.6174 0.541905 18.881 0.672293Z" fill="#0F0F0F"/>
<path d="M7.59845 8.50391C7.89181 8.80024 8.14325 9.06365 8.39936 9.31765C9.45171 10.3619 10.9744 10.4795 12.1152 9.59047C12.3247 9.42584 12.5063 9.22828 12.6972 9.04013C12.8602 8.88021 13.0185 8.71087 13.2001 8.52272C15.1046 10.4842 16.9904 12.4315 18.881 14.3789C18.7552 14.4071 18.555 14.4541 18.3548 14.4965C18.2849 14.5106 18.2058 14.5012 18.1313 14.5012C12.9813 14.5012 7.83593 14.5012 2.68593 14.4965C2.4112 14.4965 2.14113 14.4259 1.88037 14.393C3.79882 12.4174 5.68467 10.4701 7.59845 8.50391Z" fill="#0F0F0F"/>
<path d="M1.00351 13.4802C0.960302 13.2317 0.883484 12.9881 0.883484 12.7396C0.878683 9.24613 0.878683 5.75263 0.883484 2.25913C0.883484 2.01551 0.965103 1.76702 1.00351 1.5234C1.02752 1.51852 1.05152 1.50878 1.07553 1.50391C3.02479 3.52108 4.97404 5.53825 6.88009 7.51644C4.98844 9.47514 3.03919 11.4874 1.08993 13.5046C1.06113 13.4997 1.03232 13.49 1.00351 13.4802Z" fill="#0F0F0F"/>
</svg>
