<svg width="65" height="65" viewBox="0 0 65 65" fill="none" xmlns="http://www.w3.org/2000/svg">
<circle cx="32.6016" cy="32.3164" r="32" fill="#0176BD"/>
<path d="M28.2366 47.0142C26.4737 46.2523 24.824 44.3156 24.8202 42.334C24.8154 40.1736 26.1846 38.3394 27.8874 37.1339C27.6828 37.9074 27.571 38.6148 28.0782 39.3066C28.5498 39.9498 29.3755 40.2624 30.1551 40.0927C31.9772 39.694 32.0607 37.6911 30.9806 36.5242C29.9127 35.3686 28.8795 34.0633 29.286 32.3875C29.4896 31.5475 30.0054 30.7607 30.6588 30.1983C30.1566 31.5181 31.5837 32.8198 32.5242 33.4682C34.1554 34.5931 35.9451 35.4432 37.445 36.7619C39.0228 38.1477 40.1878 40.0218 39.9525 42.195C39.6975 44.5506 37.8256 46.189 35.7261 47.0162C40.1628 46.0368 44.7473 42.5934 44.8412 37.6726C44.919 33.6245 42.142 30.5091 38.7018 28.7253L38.5221 28.6273C38.6166 28.8564 38.6475 29.0514 38.6439 29.2257C38.6748 29.0971 38.6956 28.9649 38.7015 28.8285C38.7 28.9981 38.6784 29.1583 38.6385 29.3086L38.6439 29.2257C38.5922 29.4441 38.5055 29.6471 38.3892 29.8328L38.4398 29.7784C37.7534 30.9167 35.8954 31.164 34.9776 29.9852C33.502 28.0892 35.0085 26.0449 35.2191 24.0372C35.4831 21.5208 33.905 19.0781 31.9483 17.6162C33.0261 19.3595 31.6064 21.6658 30.4704 22.9551C29.3689 24.2051 28.0295 25.2486 26.8136 26.3843C25.5074 27.604 24.2517 28.8888 23.1782 30.3204C21.0311 33.1856 19.7166 36.7893 20.6826 40.3641C21.648 43.9362 24.7423 46.2101 28.2366 47.0142Z" fill="white"/>
</svg>
