<svg width="65" height="65" viewBox="0 0 65 65" fill="none" xmlns="http://www.w3.org/2000/svg">
<circle cx="32.6016" cy="32.3682" r="32" fill="#EDA623"/>
<mask id="mask0_6130_585" style="mask-type:luminance" maskUnits="userSpaceOnUse" x="17" y="17" width="31" height="31">
<path d="M47.6016 17.3682H17.6016V47.3682H47.6016V17.3682Z" fill="white"/>
</mask>
<g mask="url(#mask0_6130_585)">
<path d="M28.5453 40.5599C28.5453 40.5599 27.3782 41.2254 29.3759 41.4504C31.7962 41.7213 33.033 41.6825 35.7001 41.1875C35.7001 41.1875 36.4014 41.6187 37.3806 41.9919C31.4017 44.5044 23.8492 41.8465 28.5453 40.5599ZM27.8147 37.2812C27.8147 37.2812 26.5056 38.2313 28.5049 38.4341C31.0902 38.6955 33.1318 38.717 36.6648 38.0499C36.6648 38.0499 37.1534 38.5357 37.9218 38.8014C30.693 40.874 22.6414 38.9647 27.8147 37.2812Z" fill="white"/>
<path d="M33.9733 31.719C35.4466 33.382 33.5863 34.8785 33.5863 34.8785C33.5863 34.8785 37.327 32.9852 35.609 30.6141C34.0046 28.4031 32.774 27.3044 39.4351 23.5166C39.4351 23.5166 28.9795 26.077 33.9733 31.719Z" fill="white"/>
<path d="M41.8816 42.9848C41.8816 42.9848 42.7452 43.6825 40.9304 44.2223C37.4793 45.2474 26.5666 45.5571 23.535 44.2632C22.4453 43.7984 24.4889 43.1534 25.1317 43.018C25.8021 42.8753 26.1853 42.902 26.1853 42.902C24.9733 42.0649 18.3519 44.5457 22.8219 45.256C35.0122 47.1944 45.0437 44.3832 41.8816 42.9848ZM29.1067 33.8841C29.1067 33.8841 23.5559 35.1768 27.1411 35.6461C28.6548 35.8449 31.6725 35.8 34.4834 35.569C36.7806 35.3791 39.0874 34.9751 39.0874 34.9751C39.0874 34.9751 38.2773 35.3152 37.6913 35.7075C32.0544 37.1612 21.165 36.4849 24.2999 34.998C26.9512 33.7415 29.1067 33.8841 29.1067 33.8841ZM39.0644 39.3415C44.7946 36.4219 42.1452 33.6163 40.2959 33.9943C39.8427 34.0868 39.6407 34.1669 39.6407 34.1669C39.6407 34.1669 39.8088 33.9085 40.1303 33.7966C43.7886 32.5355 46.6022 37.516 38.9493 39.4885C38.9493 39.4885 39.0379 39.4109 39.0644 39.3415Z" fill="white"/>
<path d="M35.6079 17.4004C35.6079 17.4004 38.7814 20.5131 32.598 25.2993C27.6397 29.1388 31.4674 31.328 32.596 33.8291C29.7017 31.2687 27.5776 29.0148 29.0026 26.9169C31.0941 23.8375 36.8883 22.3446 35.6079 17.4004Z" fill="white"/>
<path d="M29.6695 47.2523C35.1697 47.5975 43.616 47.0607 43.8159 44.5088C43.8159 44.5088 43.4315 45.4763 39.2703 46.2445C34.5758 47.1107 28.7857 47.0097 25.3516 46.4545C25.3516 46.4545 26.0545 47.025 29.6695 47.2523Z" fill="white"/>
</g>
</svg>
