<svg width="65" height="65" viewBox="0 0 65 65" fill="none" xmlns="http://www.w3.org/2000/svg">
<circle cx="32.6016" cy="32.3164" r="32" fill="#0176BD"/>
<path d="M47.2832 24.0321C47.2927 24.0718 47.2983 24.1163 47.2983 24.1551V30.652C47.2983 30.8194 47.2094 30.9773 47.0619 31.0605L41.609 34.2031V40.4238C41.609 40.5912 41.5202 40.7492 41.3726 40.8324L29.9903 47.3832C29.9657 47.3983 29.9364 47.4078 29.9061 47.4172C29.8966 47.422 29.8862 47.4267 29.8768 47.4324C29.7983 47.4522 29.7141 47.4522 29.6356 47.4324C29.6205 47.4276 29.611 47.4229 29.6016 47.4172C29.5723 47.4078 29.5477 47.3974 29.5231 47.3832L18.1454 40.8324C17.9979 40.7482 17.9043 40.5912 17.9043 40.4238V20.934C17.9043 20.8943 17.9138 20.8499 17.9242 20.8111C17.9289 20.796 17.9336 20.7865 17.9393 20.7714C17.9487 20.7468 17.9591 20.7222 17.9686 20.6976C17.9733 20.6825 17.9885 20.673 17.9979 20.6579C18.0131 20.638 18.0272 20.6182 18.0424 20.5983C18.0575 20.5889 18.0717 20.5785 18.0868 20.5643C18.1067 20.5491 18.1209 20.535 18.1407 20.5246L23.83 17.2487C23.9775 17.1645 24.1601 17.1645 24.3029 17.2487L29.9969 20.5246C30.0167 20.534 30.0309 20.5491 30.0461 20.5643C30.0612 20.5737 30.0801 20.5889 30.0952 20.5983C30.1104 20.6182 30.1198 20.6324 30.1349 20.6579C30.1444 20.6674 30.1595 20.6825 30.169 20.6976C30.1785 20.7222 30.1889 20.7468 30.1983 20.7714C30.203 20.7865 30.2134 20.796 30.2134 20.8111C30.2286 20.8508 30.2333 20.8896 30.2333 20.934V33.1051L34.9712 30.3768V24.156C34.9712 24.1116 34.9807 24.0719 34.9911 24.0331C34.9958 24.0179 35.0005 24.0038 35.0062 23.9934C35.0157 23.9688 35.0261 23.9442 35.0355 23.9196C35.045 23.8997 35.0601 23.8903 35.0696 23.8751C35.0847 23.8553 35.0942 23.8354 35.1093 23.8212C35.1244 23.8071 35.1433 23.7967 35.1585 23.7872C35.1736 23.7721 35.1878 23.7579 35.2076 23.7475L40.9017 20.4716C41.0445 20.3827 41.227 20.3827 41.3745 20.4716L47.0638 23.7475C47.0837 23.7569 47.0979 23.7721 47.1177 23.7872C47.1328 23.7967 47.147 23.8071 47.1622 23.8212C47.1773 23.8354 47.1915 23.8553 47.2066 23.8751C47.2161 23.8903 47.2312 23.8997 47.2359 23.9196C47.2511 23.9442 47.2558 23.9688 47.2652 23.9934C47.2747 24.0028 47.2804 24.0179 47.2851 24.0331L47.2832 24.0321ZM46.347 30.3758V24.9778L44.3572 26.1202L41.609 27.7062V33.1042L46.347 30.3758ZM40.6634 40.1477V34.744L37.9539 36.2855L30.2305 40.699V46.1519L40.6634 40.1477ZM18.8481 21.7558V40.1477L29.28 46.1519V40.699L23.8272 37.6104C23.8073 37.6009 23.7931 37.5858 23.778 37.5707C23.7629 37.5612 23.744 37.5508 23.7336 37.5366H23.7288C23.7137 37.5215 23.7042 37.5026 23.6891 37.4875C23.6796 37.4723 23.6645 37.4581 23.6551 37.4383C23.6456 37.4232 23.6352 37.3986 23.6305 37.3787C23.621 37.3588 23.6106 37.3447 23.6059 37.3248C23.6012 37.3049 23.5964 37.2803 23.5964 37.2558C23.5917 37.2359 23.587 37.2217 23.587 37.2019V24.4842L20.8388 22.8982L18.8481 21.7558ZM24.0645 18.2048L19.3266 20.9331L24.0645 23.6614L28.8025 20.9331L24.0645 18.2048ZM26.5319 35.2377L29.28 33.6517V21.7568L27.2903 22.8992L24.5374 24.4851V36.3801L26.5319 35.2377ZM41.1362 21.4258L36.3926 24.1541L41.1362 26.8825L45.8741 24.1541L41.1362 21.4258ZM40.6634 27.7062L35.9198 24.9778V30.3758L38.6679 31.9618L40.6624 33.1042L40.6634 27.7062ZM29.7538 39.8772L40.1811 33.9269L35.4479 31.1986L25.0254 37.1981L29.7538 39.8772Z" fill="white"/>
</svg>
