<svg width="65" height="64" viewBox="0 0 65 64" fill="none" xmlns="http://www.w3.org/2000/svg">
<circle cx="32.7354" cy="31.999" r="32" fill="#C929CC"/>
<path d="M31.7529 17.0071C31.6884 17.013 31.4832 17.0335 31.2984 17.0481C27.0374 17.4323 23.0462 19.731 20.5183 23.2642C19.1107 25.2288 18.2104 27.4572 17.8702 29.8175C17.75 30.6415 17.7354 30.8848 17.7354 32.002C17.7354 33.1191 17.75 33.3625 17.8702 34.1864C18.6855 39.819 22.6943 44.5514 28.1312 46.3048C29.1049 46.6186 30.1312 46.8326 31.2984 46.9616C31.7529 47.0115 33.7178 47.0115 34.1723 46.9616C36.187 46.7388 37.8937 46.2403 39.577 45.3812C39.8351 45.2493 39.8849 45.2141 39.8497 45.1848C39.8263 45.1672 38.7266 43.6923 37.4069 41.9096L35.0081 38.6696L32.0022 34.2216C30.3483 31.7762 28.9876 29.7765 28.9758 29.7765C28.9641 29.7735 28.9524 31.7498 28.9465 34.1629C28.9377 38.3881 28.9348 38.5582 28.882 38.6579C28.8057 38.8015 28.7471 38.8602 28.6239 38.9247C28.5301 38.9716 28.448 38.9804 28.0051 38.9804H27.4978L27.3629 38.8954C27.2749 38.8397 27.2104 38.7664 27.1664 38.6813L27.1049 38.5494L27.1107 32.6705L27.1195 26.7887L27.2104 26.6743C27.2573 26.6127 27.3571 26.5336 27.4274 26.4954C27.5477 26.4368 27.5946 26.4309 28.1019 26.4309C28.7002 26.4309 28.7999 26.4544 28.9553 26.6245C28.9993 26.6714 30.6268 29.1226 32.5741 32.0753C34.5213 35.0279 37.184 39.0596 38.4919 41.0388L40.8673 44.6365L40.9876 44.5573C42.0521 43.8653 43.1782 42.8801 44.0697 41.8539C45.967 39.6753 47.1899 37.0188 47.6005 34.1864C47.7207 33.3625 47.7354 33.1191 47.7354 32.002C47.7354 30.8848 47.7207 30.6415 47.6005 29.8175C46.7852 24.1849 42.7764 19.4525 37.3395 17.6991C36.3805 17.3883 35.36 17.1742 34.2163 17.0452C33.9348 17.0159 31.9963 16.9836 31.7529 17.0071ZM37.8937 26.0791C38.0345 26.1494 38.1488 26.2843 38.1899 26.4251C38.2134 26.5013 38.2192 28.1316 38.2134 31.8055L38.2046 37.0775L37.2749 35.6525L36.3424 34.2274V30.3952C36.3424 27.9175 36.3541 26.5248 36.3717 26.4573C36.4186 26.2931 36.5213 26.1641 36.662 26.0879C36.7823 26.0263 36.8263 26.0204 37.2867 26.0204C37.7207 26.0204 37.7969 26.0263 37.8937 26.0791Z" fill="white"/>
</svg>
