<svg width="65" height="64" viewBox="0 0 65 64" fill="none" xmlns="http://www.w3.org/2000/svg">
<circle cx="32.7354" cy="31.999" r="32" fill="#C929CC"/>
<path fill-rule="evenodd" clip-rule="evenodd" d="M47.4805 32.2539C47.4805 40.3975 40.8789 46.999 32.7354 46.999C24.5918 46.999 17.9902 40.3975 17.9902 32.2539C17.9902 24.1104 24.5918 17.5088 32.7354 17.5088C40.8789 17.5088 47.4805 24.1104 47.4805 32.2539ZM32.861 25.9348H31.0915L29.2451 35.9288H31.0146L32.066 30.208L33.4893 30.2219C33.9424 30.2219 34.2373 30.3194 34.374 30.5142C34.5107 30.709 34.5363 31.0384 34.4509 31.5025L33.6303 35.9288H35.4255L36.2846 31.2937C36.4641 30.2545 36.3358 29.5491 35.8998 29.178C35.4723 28.8068 34.8228 28.612 33.9508 28.5934H32.3609L32.861 25.9348ZM22.983 28.5938H26.4193C27.4279 28.6029 28.1588 28.9186 28.6119 29.5402C29.065 30.1619 29.2146 31.0109 29.0607 32.0874C29.001 32.5794 28.8684 33.0617 28.6632 33.5351C28.4666 34.0083 28.1932 34.4351 27.8426 34.8156C27.4151 35.298 26.9578 35.6042 26.4707 35.7343C25.9834 35.8643 25.479 35.9291 24.9576 35.9291H23.419L22.9317 38.5738H21.1494L22.983 28.5938ZM23.7138 34.3563L24.4806 30.1944H24.7397C24.8337 30.1944 24.932 30.1897 25.0345 30.1805C25.7185 30.1713 26.2867 30.2409 26.7399 30.3893C27.2015 30.5377 27.3553 31.0992 27.2015 32.0735C27.0136 33.2335 26.6457 33.9109 26.0988 34.1057C25.5518 34.2914 24.8679 34.3794 24.0472 34.3702H23.8677C23.8164 34.3702 23.7651 34.3655 23.7138 34.3563ZM38.1861 28.5938H41.6224C42.6311 28.6029 43.3619 28.9186 43.8151 29.5402C44.2683 30.1619 44.4177 31.0109 44.2638 32.0874C44.2041 32.5794 44.0715 33.0617 43.8664 33.5351C43.6697 34.0083 43.3963 34.4351 43.0458 34.8156C42.6183 35.298 42.1611 35.6042 41.6737 35.7343C41.1866 35.8643 40.6821 35.9291 40.1608 35.9291H38.6221L38.1348 38.5738H36.3525L38.1861 28.5938ZM38.9171 34.3563L39.6838 30.1944H39.9428C40.0369 30.1944 40.1351 30.1897 40.2377 30.1805C40.9217 30.1713 41.49 30.2409 41.9431 30.3893C42.4047 30.5377 42.5585 31.0992 42.4047 32.0735C42.2166 33.2335 41.8489 33.9109 41.3019 34.1057C40.7549 34.2914 40.071 34.3794 39.2504 34.3702H39.0709C39.0196 34.3702 38.9683 34.3655 38.9171 34.3563Z" fill="white"/>
</svg>
