<svg width="65" height="65" viewBox="0 0 65 65" fill="none" xmlns="http://www.w3.org/2000/svg">
<circle cx="32.6016" cy="32.9375" r="32" fill="#F87979"/>
<path d="M15.9375 44.6557V20.8311C15.9375 20.669 16.0067 20.5764 16.1682 20.5764C16.5605 20.5764 16.9297 20.5764 17.4605 20.5532C18.0143 20.5301 18.5912 20.5301 19.2142 20.5069C19.8373 20.4838 20.5065 20.4838 21.2218 20.4606C21.9372 20.4375 22.6295 20.4375 23.3218 20.4375C25.214 20.4375 26.7831 20.669 28.0753 21.1552C29.2292 21.5488 30.2906 22.1971 31.1675 23.0538C31.906 23.7947 32.4828 24.6977 32.852 25.6932C33.1981 26.6657 33.3827 27.6612 33.3827 28.7031C33.3827 30.6943 32.9212 32.3382 31.9982 33.6348C31.0752 34.9313 29.7829 35.9037 28.283 36.4594C26.7139 37.0382 24.9832 37.2467 23.091 37.2467C22.5371 37.2467 22.1679 37.2467 21.9372 37.2235C21.7064 37.2002 21.3834 37.2002 20.9449 37.2002V44.6325C20.968 44.7946 20.8526 44.9334 20.6911 44.9566C20.668 44.9566 20.6449 44.9566 20.5988 44.9566H16.2144C16.0298 44.9566 15.9375 44.864 15.9375 44.6557ZM20.968 25.0449V32.8244C21.2911 32.8476 21.5911 32.8707 21.868 32.8707H23.091C23.9909 32.8707 24.8909 32.7318 25.7447 32.4539C26.4831 32.2456 27.1293 31.8056 27.6369 31.2268C28.1215 30.648 28.3522 29.8608 28.3522 28.8421C28.3754 28.1243 28.1907 27.4066 27.8215 26.7814C27.4292 26.1794 26.8754 25.7164 26.2062 25.4617C25.3524 25.1144 24.4294 24.9755 23.4833 24.9987C22.8833 24.9987 22.3526 24.9987 21.9141 25.0218C21.4526 24.9987 21.1295 25.0218 20.968 25.0449Z" fill="white"/>
<path d="M47.7876 31.4064C47.0953 31.0359 46.3568 30.7813 45.5723 30.6192C44.7186 30.434 43.8646 30.3182 42.9878 30.3182C42.5263 30.295 42.0417 30.3645 41.6033 30.4803C41.3033 30.5497 41.0495 30.7118 40.8879 30.9433C40.7726 31.1286 40.7034 31.3601 40.7034 31.5685C40.7034 31.7768 40.7957 31.9853 40.9341 32.1705C41.1418 32.4251 41.4186 32.6335 41.7187 32.7956C42.2494 33.0734 42.8033 33.3281 43.357 33.5597C44.6031 33.9764 45.8029 34.5552 46.9106 35.2498C47.6721 35.736 48.2951 36.3844 48.7339 37.1715C49.1029 37.9125 49.2877 38.7228 49.2643 39.5563C49.2877 40.6445 48.9645 41.7327 48.3643 42.6357C47.7184 43.5618 46.8184 44.2795 45.78 44.6963C44.6494 45.1825 43.2649 45.4372 41.6033 45.4372C40.5418 45.4372 39.5034 45.3445 38.4649 45.1362C37.6574 44.9973 36.8497 44.7426 36.1112 44.3952C35.9497 44.3026 35.8343 44.1406 35.8574 43.9554V39.9267C35.8574 39.8572 35.8805 39.7646 35.9497 39.7183C36.019 39.6721 36.0882 39.6952 36.1574 39.7415C37.0574 40.274 38.0035 40.6445 39.0188 40.876C39.8957 41.1076 40.8187 41.2233 41.7417 41.2233C42.6186 41.2233 43.2415 41.1076 43.657 40.8991C44.0263 40.7371 44.28 40.3434 44.28 39.9267C44.28 39.6026 44.0955 39.3016 43.7262 39.0007C43.357 38.6996 42.5955 38.3523 41.4648 37.9125C40.288 37.4957 39.2035 36.94 38.1881 36.2454C37.4727 35.736 36.8728 35.0646 36.4343 34.2774C36.0652 33.5365 35.8805 32.7261 35.9036 31.9158C35.9036 30.9202 36.1804 29.9709 36.6882 29.1143C37.2651 28.1881 38.1188 27.4472 39.1111 26.9842C40.1957 26.4285 41.5572 26.1738 43.1957 26.1738C44.1415 26.1738 45.1107 26.2432 46.0569 26.3822C46.7492 26.4748 47.4185 26.66 48.0416 26.9147C48.1337 26.9379 48.2259 27.0305 48.2722 27.1231C48.2951 27.2157 48.3185 27.3083 48.3185 27.4009V31.1749C48.3185 31.2675 48.2722 31.3601 48.2029 31.4064C47.9953 31.4527 47.8798 31.4527 47.7876 31.4064Z" fill="white"/>
</svg>
