<svg width="65" height="65" viewBox="0 0 65 65" fill="none" xmlns="http://www.w3.org/2000/svg">
<circle cx="32.6016" cy="32.3164" r="32" fill="#0176BD"/>
<g style="mix-blend-mode:luminosity">
<mask id="mask0_6130_593" style="mask-type:luminance" maskUnits="userSpaceOnUse" x="14" y="16" width="37" height="37">
<path d="M50.8054 16.1123H14.3975V52.5205H50.8054V16.1123Z" fill="white"/>
</mask>
<g mask="url(#mask0_6130_593)">
<path d="M22.341 19.0176L32.6015 17.9307L42.862 19.0176L50.8054 29.7031L32.6015 50.9451L14.3975 29.7031L22.341 19.0176Z" fill="#FDB300"/>
<path d="M21.771 29.707L32.6014 50.9491L14.3975 29.707H21.771Z" fill="#EA6C00"/>
<path d="M43.4349 29.707L32.6045 50.9491L50.8086 29.707H43.4349Z" fill="#EA6C00"/>
<path d="M21.7725 29.707H43.4335L32.6029 50.9491L21.7725 29.707Z" fill="#FDAD00"/>
<path d="M32.6029 17.9307L22.3424 19.0176L21.7725 29.7031L32.6029 17.9307Z" fill="#FDD231"/>
<path d="M32.6045 17.9307L42.8651 19.0176L43.4349 29.7031L32.6045 17.9307Z" fill="#FDD231"/>
<path d="M50.8079 29.7011L42.8643 19.0156L43.4343 29.7011H50.8079Z" fill="#FDAD00"/>
<path d="M14.3975 29.7011L22.341 19.0156L21.771 29.7011H14.3975Z" fill="#FDAD00"/>
<path d="M32.6029 17.9307L21.7725 29.7031H43.4335L32.6029 17.9307Z" fill="#FEEEB7"/>
</g>
</g>
</svg>
