<svg width="65" height="65" viewBox="0 0 65 65" fill="none" xmlns="http://www.w3.org/2000/svg">
<circle cx="32.6016" cy="32.3164" r="32" fill="#0176BD"/>
<mask id="mask0_6130_592" style="mask-type:luminance" maskUnits="userSpaceOnUse" x="17" y="17" width="31" height="31">
<path d="M47.6014 17.3164H17.6016V47.3164H47.6014V17.3164Z" fill="white"/>
</mask>
<g mask="url(#mask0_6130_592)">
<path d="M27.5477 47.3164C30.3194 47.3164 32.5689 45.0765 32.5689 42.3165V37.3164H27.5477C24.7759 37.3164 22.5264 39.5565 22.5264 42.3165C22.5264 45.0765 24.7759 47.3164 27.5477 47.3164Z" fill="white"/>
<path d="M22.5264 32.3174C22.5264 29.5574 24.7759 27.3174 27.5477 27.3174H32.5689V37.3174H27.5477C24.7759 37.3174 22.5264 35.0774 22.5264 32.3174Z" fill="white"/>
<path d="M22.5264 22.3164C22.5264 19.5564 24.7759 17.3164 27.5477 17.3164H32.5689V27.3164H27.5477C24.7759 27.3164 22.5264 25.0764 22.5264 22.3164Z" fill="white"/>
<path opacity="0.9" d="M32.5703 17.3164H37.5916C40.3633 17.3164 42.6128 19.5564 42.6128 22.3164C42.6128 25.0764 40.3633 27.3164 37.5916 27.3164H32.5703V17.3164Z" fill="white"/>
<path opacity="0.6" d="M42.6128 32.3174C42.6128 35.0774 40.3633 37.3174 37.5916 37.3174C34.8198 37.3174 32.5703 35.0774 32.5703 32.3174C32.5703 29.5574 34.8198 27.3174 37.5916 27.3174C40.3633 27.3174 42.6128 29.5574 42.6128 32.3174Z" fill="white"/>
</g>
</svg>
