<svg width="65" height="64" viewBox="0 0 65 64" fill="none" xmlns="http://www.w3.org/2000/svg">
<circle cx="32.7368" cy="31.999" r="32" fill="#C929CC"/>
<path d="M30.9422 46.9799C28.1341 46.7775 25.3586 46.0707 23.6564 45.1244C22.6868 44.5854 21.9482 43.923 21.6583 43.3327L21.4858 42.9814V31.9637V20.9459L21.6223 20.6688C22.2322 19.4307 24.1784 18.3145 26.8954 17.6448C27.8176 17.4174 29.149 17.191 30.2352 17.0768C31.3444 16.9602 34.2842 16.978 35.3906 17.1081C38.3311 17.4536 40.8333 18.227 42.3753 19.2671C42.97 19.6682 43.5802 20.31 43.7869 20.7518L43.9642 21.1306L43.949 32.115L43.9338 43.0994L43.7915 43.3885C43.7133 43.5474 43.4769 43.8602 43.2663 44.0835C41.9841 45.4427 39.2338 46.4481 35.6263 46.8765C34.891 46.9639 31.6966 47.0343 30.9422 46.9799ZM36.1172 37.5392C36.1064 37.5111 35.6867 37.1371 35.1844 36.7081C34.6821 36.2792 34.2495 35.908 34.223 35.8834C34.1966 35.8587 34.2894 35.7715 34.4293 35.6895C34.5691 35.6075 34.8371 35.3794 35.0248 35.1827C35.5735 34.6072 35.8325 33.8964 35.8325 32.9653C35.8325 32.0487 35.5532 31.3091 34.9939 30.7445C34.4302 30.1755 33.7829 29.931 32.8404 29.931C31.3875 29.931 30.2717 30.7787 29.9155 32.1532C29.793 32.6259 29.7937 33.5812 29.9168 34.0004C30.238 35.0938 31.1127 35.888 32.2014 36.0744C32.5698 36.1375 32.6197 36.1647 32.8708 36.4393C33.0201 36.6025 33.3264 36.9283 33.5515 37.1632L33.9608 37.5904H35.0489C35.6473 37.5904 36.128 37.5674 36.1172 37.5392ZM32.3859 34.4927C32.1239 34.3561 32.0249 34.2502 31.8755 33.9465C31.7602 33.712 31.7404 33.5786 31.7391 33.0242C31.7379 32.4609 31.7558 32.3392 31.8762 32.0946C32.0733 31.6944 32.3449 31.5049 32.765 31.4745C33.3498 31.4321 33.6874 31.7191 33.8643 32.4089C34.0812 33.2545 33.8427 34.1536 33.3223 34.452C33.0492 34.6085 32.642 34.6263 32.3859 34.4927ZM27.5631 36.0624C28.7039 35.8461 29.3514 35.1827 29.3514 34.2303C29.3514 33.3855 28.9334 32.8932 27.7779 32.3773C27.1164 32.082 26.8769 31.8967 26.8769 31.6801C26.8769 31.5007 27.1042 31.304 27.3689 31.2546C27.6274 31.2063 28.3128 31.3254 28.7176 31.4889L29.0569 31.6259V30.8749V30.1238L28.6886 30.0421C28.461 29.9917 27.9828 29.9614 27.4366 29.9629C26.6629 29.9629 26.5114 29.9818 26.2202 30.0974C25.3698 30.435 24.9662 31.0102 24.9726 31.8753C24.9787 32.6852 25.4059 33.1904 26.4693 33.6449C27.0967 33.9131 27.3482 34.1173 27.3482 34.3586C27.3482 34.8714 26.4938 34.9345 25.5892 34.4885C25.3415 34.3664 25.1189 34.2565 25.0946 34.2443C25.0703 34.2322 25.0504 34.583 25.0504 35.024C25.0504 35.8221 25.0513 35.826 25.1958 35.881C25.74 36.0879 26.9427 36.1801 27.5631 36.0624ZM40.6049 35.322V34.6445H39.5738H38.5427V32.3172V29.9899H37.6295H36.7163V32.9947V35.9996H38.6606H40.6049V35.322ZM34.2417 23.4484C36.0564 23.3226 37.4168 23.0849 38.6139 22.6847C39.8064 22.2859 40.5109 21.8034 40.6685 21.2775C40.7292 21.0748 40.7248 20.998 40.64 20.7757C40.2595 19.7795 38.1342 19.0141 34.8865 18.7038C33.4972 18.571 30.9707 18.6141 29.6461 18.793C27.625 19.0661 25.9847 19.5733 25.2554 20.1508C23.78 21.3191 25.3402 22.6041 28.9685 23.2089C30.5417 23.4711 32.5799 23.5637 34.2417 23.4484Z" fill="white"/>
</svg>
