<svg width="65" height="65" viewBox="0 0 65 65" fill="none" xmlns="http://www.w3.org/2000/svg">
<circle cx="32.6016" cy="32.3682" r="32" fill="#EDA623"/>
<path d="M42.0403 45.3589C37.65 47.6395 31.6193 47.8706 25.5624 45.5392C20.8369 43.7308 16.7911 40.6157 13.9502 36.596C15.2755 37.536 16.7178 38.3157 18.2458 38.9152C24.5061 41.4925 30.7803 41.3762 35.1845 38.9152C29.371 34.7082 24.1354 29.8249 19.6011 24.3789C18.8198 23.5929 18.1207 22.7294 17.5145 21.8016C22.2763 25.6056 27.3415 29.052 32.6649 32.1109C28.7878 28.3724 25.2219 24.352 22.0012 20.0872C27.3723 24.9899 33.2767 29.3356 39.6156 33.0517L40.2936 33.4123C40.477 32.9922 40.6354 32.5619 40.7682 32.1232C42.2322 27.3292 40.5648 21.8787 36.9065 17.3682C45.3759 21.968 50.3902 30.6154 48.3022 37.858C48.3022 38.0507 48.1944 38.2448 48.125 38.4382L48.1927 38.5153C52.3796 43.2192 51.2285 48.1928 50.7002 47.2528C48.4099 43.3232 44.1684 44.5329 42.0412 45.3574L42.0403 45.3589Z" fill="#FEFEFE"/>
</svg>
