<svg width="16" height="24" viewBox="0 0 16 24" fill="none" xmlns="http://www.w3.org/2000/svg">
<path d="M8.85962 0.503906C9.34493 0.599939 9.84151 0.647956 10.3042 0.798007C13.1427 1.71632 14.8807 3.76303 15.5635 6.80607C15.9924 8.71473 15.7159 10.5634 14.8412 12.286C13.0637 15.7792 11.2692 19.2543 9.47472 22.7415C9.22078 23.2337 8.83141 23.5098 8.29532 23.5038C7.77052 23.4978 7.38679 23.2217 7.1385 22.7415C5.34966 19.2604 3.53825 15.7852 1.77762 12.286C-0.293373 8.16254 1.35439 3.03077 5.32709 1.17014C6.0494 0.83402 6.79992 0.623947 7.57866 0.545921C7.64073 0.539919 7.7028 0.521912 7.76488 0.503906C8.13167 0.503906 8.49283 0.503906 8.85962 0.503906ZM5.27066 7.68837C5.27066 9.46498 6.63063 10.9235 8.29532 10.9295C9.97694 10.9355 11.3482 9.48299 11.3538 7.70038C11.3538 5.92377 9.99952 4.46527 8.32918 4.45927C6.64756 4.45326 5.27066 5.89976 5.27066 7.68837Z" fill="#0F0F0F"/>
</svg>
