<svg width="65" height="65" viewBox="0 0 65 65" fill="none" xmlns="http://www.w3.org/2000/svg">
<circle cx="32.6016" cy="32.9375" r="32" fill="#F87979"/>
<path d="M17.8449 45.4376H23.3252C23.4714 45.4376 23.5999 45.3401 23.6391 45.199L25.2373 39.4373H31.4418L33.1758 45.2058C33.2172 45.3434 33.3439 45.4376 33.4877 45.4376H39.1758C39.1769 45.4376 39.1779 45.4376 39.1784 45.4376C39.3583 45.4376 39.5041 45.2919 39.5041 45.112C39.5041 45.0639 39.4939 45.0184 39.475 44.9773L32.238 21.6384C32.1958 21.5022 32.0696 21.4092 31.9269 21.4092H24.99C24.8467 21.4092 24.7204 21.5027 24.6786 21.6396L17.5337 45.0168C17.5037 45.1155 17.5219 45.2227 17.5833 45.3057C17.6448 45.3886 17.7417 45.4376 17.8449 45.4376ZM30.486 34.8319H26.1822L27.454 30.286C27.6849 29.4669 27.9032 28.4976 28.1143 27.5602C28.1626 27.3449 28.2102 27.1337 28.2573 26.9271C28.5367 28.0501 28.844 29.2633 29.152 30.2894L30.486 34.8319Z" fill="white"/>
<path d="M41.9135 27.8262C41.7336 27.8262 41.5879 27.9719 41.5879 28.1518V45.1124C41.5879 45.2923 41.7336 45.438 41.9135 45.438H47.1855C47.3653 45.438 47.5111 45.2923 47.5111 45.1124V28.1518C47.5111 27.9719 47.3653 27.8262 47.1855 27.8262H41.9135Z" fill="white"/>
<path d="M44.5148 26.3955C46.3515 26.3955 47.6845 25.15 47.6845 23.4265C47.6445 21.6666 46.3553 20.4375 44.5495 20.4375C43.6276 20.4375 42.809 20.7556 42.2445 21.3333C41.7148 21.8752 41.4325 22.621 41.4489 23.4338C41.4321 24.2209 41.715 24.9533 42.2459 25.4969C42.8117 26.0764 43.6175 26.3955 44.5148 26.3955Z" fill="white"/>
</svg>
