<svg width="65" height="65" viewBox="0 0 65 65" fill="none" xmlns="http://www.w3.org/2000/svg">
<circle cx="32.6016" cy="32.3682" r="32" fill="#EDA623"/>
<path d="M21.8565 41.4929L16.8099 36.5948C16.113 35.8782 15.7152 34.9231 15.6973 33.9237C15.6973 33.4733 15.9495 32.7706 16.1409 32.3674L21.4787 21.2461L21.8565 41.4929Z" fill="white"/>
<path opacity="0.7" d="M42.3864 22.3588L36.605 16.5774C36.1027 16.0707 35.0509 15.4648 34.1591 15.4648C33.3933 15.4648 32.6456 15.618 32.1569 15.9085L21.4814 21.2462L42.3864 22.3588ZM29.488 49.2703H43.5012V43.266L33.1472 43.2637H23.4836L29.488 49.2703Z" fill="white"/>
<path opacity="0.87" d="M21.4834 39.2634C21.4834 41.0471 21.7064 41.4863 22.5937 42.3782L23.4833 43.2678H43.5009L33.7151 32.1487L21.4834 21.248V39.2634Z" fill="white"/>
<path d="M39.2738 21.2464H21.4814L43.4989 43.2661H49.5033V29.4737L42.3864 22.3567C41.3886 21.3545 40.5013 21.2464 39.2738 21.2464Z" fill="white"/>
<path opacity="0.2" d="M22.8131 42.5992C21.9257 41.7051 21.7028 40.8267 21.7028 39.2659V21.4713L21.4775 21.2461V39.2637C21.482 40.8267 21.482 41.2591 22.8153 42.5992H22.8131Z" fill="white"/>
<path opacity="0.2" d="M49.2827 29.2552V43.0431H43.2783L43.5013 43.2661H49.5079V29.4782L49.2827 29.2552Z" fill="#263238"/>
<path opacity="0.2" d="M42.3864 22.3587C41.285 21.2551 40.3819 21.2461 39.0531 21.2461H21.4814L21.7067 21.4713H39.0553C39.7152 21.4713 41.3909 21.3587 42.3864 22.3587Z" fill="white"/>
</svg>
