<svg width="79" height="78" viewBox="0 0 79 78" fill="none" xmlns="http://www.w3.org/2000/svg">
<g filter="url(#filter0_d_5789_3395)">
<circle cx="39.7358" cy="36.999" r="32" fill="#C929CC"/>
</g>
<path d="M39.7365 40.0726C41.4342 40.0726 42.8104 38.6964 42.8104 36.9987C42.8104 35.301 41.4342 33.9248 39.7365 33.9248C38.0388 33.9248 36.6626 35.301 36.6626 36.9987C36.6626 38.6964 38.0388 40.0726 39.7365 40.0726Z" fill="white" stroke="white" stroke-width="0.894845"/>
<path fill-rule="evenodd" clip-rule="evenodd" d="M24.7859 34.8222C23.9969 35.5345 23.6116 36.2708 23.6116 36.9993C23.6116 37.7279 23.9969 38.4642 24.7859 39.1765C25.5748 39.8887 26.7372 40.5469 28.205 41.1073C31.1379 42.2272 35.2148 42.9276 39.7364 42.9276C44.2579 42.9276 48.3347 42.2272 51.2679 41.1073C52.7355 40.5469 53.8979 39.8887 54.6869 39.1765C55.4759 38.4642 55.861 37.7279 55.861 36.9993C55.861 36.2708 55.4759 35.5345 54.6869 34.8222C53.8979 34.11 52.7355 33.4517 51.2679 32.8914C48.3347 31.7715 44.2579 31.071 39.7364 31.071C35.2148 31.071 31.1379 31.7715 28.205 32.8914C26.7372 33.4517 25.5748 34.11 24.7859 34.8222ZM27.9413 32.2009C30.9781 31.0414 35.1484 30.332 39.7364 30.332C44.3244 30.332 48.4946 31.0414 51.5313 32.2009C53.0484 32.7802 54.3017 33.4789 55.182 34.2736C56.0625 35.0684 56.6001 35.9888 56.6001 36.9993C56.6001 38.0099 56.0625 38.9303 55.182 39.725C54.3017 40.5198 53.0484 41.2185 51.5313 41.7978C48.4946 42.9573 44.3244 43.6667 39.7364 43.6667C35.1484 43.6667 30.9781 42.9573 27.9413 41.7978C26.4242 41.2185 25.1711 40.5198 24.2907 39.725C23.4103 38.9303 22.8726 38.0099 22.8726 36.9993C22.8726 35.9888 23.4103 35.0684 24.2907 34.2736C25.1711 33.4789 26.4242 32.7802 27.9413 32.2009Z" fill="white" stroke="white" stroke-width="0.894845"/>
<path fill-rule="evenodd" clip-rule="evenodd" d="M34.1473 22.963C33.136 22.6358 32.3056 22.6703 31.6747 23.0346C31.0438 23.3989 30.5987 24.1007 30.3764 25.1401C30.1541 26.1794 30.1652 27.5152 30.4137 29.0666C30.9104 32.1665 32.3422 36.0474 34.6031 39.9632C36.8638 43.8789 39.5088 47.0595 41.9451 49.0396C43.1643 50.0303 44.3157 50.7079 45.3269 51.0352C46.3382 51.3621 47.1685 51.3278 47.7994 50.9634C48.4305 50.5992 48.8753 49.8974 49.0978 48.8579C49.32 47.8186 49.309 46.4829 49.0604 44.9316C48.5638 41.8316 47.1319 37.9507 44.8712 34.0349C42.6104 30.1191 39.9654 26.9386 37.529 24.9585C36.3098 23.9676 35.1585 23.2901 34.1473 22.963ZM37.9951 24.385C40.5176 26.4352 43.2172 29.692 45.5112 33.6653C47.8053 37.6387 49.2759 41.605 49.7902 44.8147C50.047 46.4181 50.0685 47.8526 49.8205 49.0125C49.5724 50.1723 49.0442 51.0982 48.1689 51.6035C47.2938 52.1088 46.2278 52.1032 45.0994 51.7383C43.9709 51.3732 42.7392 50.6372 41.479 49.6132C38.9565 47.5628 36.257 44.306 33.963 40.3327C31.669 36.3594 30.1983 32.3931 29.684 29.1835C29.4271 27.58 29.4057 26.1453 29.6537 24.9855C29.9018 23.8258 30.43 22.8998 31.3052 22.3946C32.1803 21.8893 33.2464 21.8948 34.3747 22.2598C35.5032 22.6249 36.7349 23.3608 37.9951 24.385Z" fill="white" stroke="white" stroke-width="0.894845"/>
<path fill-rule="evenodd" clip-rule="evenodd" d="M49.0978 25.1401C48.8753 24.1007 48.4305 23.3989 47.7996 23.0346C47.1685 22.6703 46.3381 22.6358 45.3269 22.963C44.3156 23.2901 43.1643 23.9676 41.9451 24.9585C39.5088 26.9387 36.8638 30.1191 34.6031 34.0348C32.3422 37.9507 30.9104 41.8315 30.4137 44.9315C30.1652 46.4829 30.1541 47.8186 30.3764 48.8579C30.5987 49.8973 31.0438 50.5992 31.6747 50.9634C32.3056 51.3277 33.1359 51.3623 34.1473 51.0351C35.1585 50.7078 36.3098 50.0306 37.529 49.0396C39.9653 47.0595 42.6104 43.8789 44.8711 39.9632C47.1319 36.0474 48.5638 32.1665 49.0604 29.0665C49.3089 27.5152 49.32 26.1794 49.0978 25.1401ZM49.7902 29.1834C49.2759 32.3931 47.8052 36.3594 45.5112 40.3327C43.2172 44.306 40.5176 47.5628 37.9951 49.6131C36.7349 50.6372 35.5032 51.3731 34.3747 51.7383C33.2463 52.1032 32.1803 52.1088 31.3052 51.6035C30.43 51.0981 29.9018 50.1722 29.6537 49.0125C29.4057 47.8526 29.4271 46.4181 29.684 44.8147C30.1983 41.6049 31.669 37.6387 33.963 33.6653C36.257 29.692 38.9565 26.4352 41.479 24.385C42.7392 23.3608 43.971 22.6249 45.0994 22.2598C46.2278 21.8948 47.2938 21.8893 48.1689 22.3946C49.0442 22.8998 49.5724 23.8258 49.8205 24.9855C50.0685 26.1453 50.047 27.58 49.7902 29.1834Z" fill="white" stroke="white" stroke-width="0.894845"/>
<defs>
<filter id="filter0_d_5789_3395" x="0.73584" y="-0.000976562" width="78" height="78" filterUnits="userSpaceOnUse" color-interpolation-filters="sRGB">
<feFlood flood-opacity="0" result="BackgroundImageFix"/>
<feColorMatrix in="SourceAlpha" type="matrix" values="0 0 0 0 0 0 0 0 0 0 0 0 0 0 0 0 0 0 127 0" result="hardAlpha"/>
<feOffset dy="2"/>
<feGaussianBlur stdDeviation="3.5"/>
<feComposite in2="hardAlpha" operator="out"/>
<feColorMatrix type="matrix" values="0 0 0 0 0 0 0 0 0 0 0 0 0 0 0 0 0 0 0.25 0"/>
<feBlend mode="normal" in2="BackgroundImageFix" result="effect1_dropShadow_5789_3395"/>
<feBlend mode="normal" in="SourceGraphic" in2="effect1_dropShadow_5789_3395" result="shape"/>
</filter>
</defs>
</svg>
