<svg width="65" height="65" viewBox="0 0 65 65" fill="none" xmlns="http://www.w3.org/2000/svg">
<circle cx="32.6016" cy="32.627" r="32" fill="#22C59C"/>
<path d="M42.4412 23.5152C42.4205 23.3652 42.2891 23.2821 42.1805 23.273C42.0721 23.264 39.7782 23.0939 39.7782 23.0939C39.7782 23.0939 38.185 21.5123 38.0101 21.3372C37.8351 21.1622 37.4934 21.2154 37.3608 21.2545C37.3413 21.2602 37.0127 21.3616 36.4692 21.5298C35.937 19.9984 34.9978 18.5911 33.3454 18.5911C33.2998 18.5911 33.2528 18.5929 33.2059 18.5956C32.736 17.9741 32.1538 17.7041 31.651 17.7041C27.8019 17.7041 25.9629 22.5159 25.3864 24.9611C23.8907 25.4246 22.8282 25.7541 22.6924 25.7967C21.8576 26.0586 21.8312 26.0849 21.7215 26.8716C21.639 27.4671 19.4546 44.3605 19.4546 44.3605L36.4763 47.5498L45.6992 45.5546C45.6992 45.5546 42.4615 23.6652 42.4412 23.5152ZM35.5284 21.8208L34.0881 22.2666C34.0886 22.1651 34.0891 22.0652 34.0891 21.956C34.0891 21.0042 33.957 20.2379 33.7451 19.6304C34.5965 19.7372 35.1635 20.706 35.5284 21.8208ZM32.6889 19.8191C32.9256 20.4122 33.0795 21.2634 33.0795 22.412C33.0795 22.4708 33.079 22.5245 33.0785 22.5789C32.1418 22.869 31.124 23.184 30.1039 23.5001C30.6766 21.2895 31.7503 20.2218 32.6889 19.8191ZM31.5453 18.7365C31.7114 18.7365 31.8788 18.7929 32.039 18.9032C30.8054 19.4837 29.4831 20.9456 28.9247 23.8652L26.5734 24.5934C27.2275 22.3665 28.7806 18.7365 31.5453 18.7365Z" fill="white"/>
<path d="M42.1809 23.2733C42.0725 23.2643 39.7786 23.0943 39.7786 23.0943C39.7786 23.0943 38.1854 21.5126 38.0105 21.3375C37.9451 21.2724 37.8568 21.239 37.7646 21.2246L36.4775 47.5499L45.6997 45.5549C45.6997 45.5549 42.4619 23.6655 42.4416 23.5155C42.4209 23.3655 42.2895 23.2825 42.1809 23.2733Z" fill="#EBEBEB"/>
<path d="M33.3456 28.3695L32.2084 31.7523C32.2084 31.7523 31.212 31.2205 29.9907 31.2205C28.2001 31.2205 28.11 32.3442 28.11 32.6274C28.11 34.1724 32.1374 34.7643 32.1374 38.3832C32.1374 41.2305 30.3316 43.0639 27.8966 43.0639C24.9747 43.0639 23.4805 41.2454 23.4805 41.2454L24.2628 38.6604C24.2628 38.6604 25.7988 39.9791 27.0949 39.9791C27.9417 39.9791 28.2862 39.3123 28.2862 38.8251C28.2862 36.8098 24.9821 36.7199 24.9821 33.4083C24.9821 30.6211 26.9827 27.9238 31.0209 27.9238C32.5769 27.9238 33.3456 28.3695 33.3456 28.3695Z" fill="#22C59C"/>
</svg>
