<svg width="18" height="18" viewBox="0 0 18 18" fill="none" xmlns="http://www.w3.org/2000/svg">
<path d="M17.4558 15.1486C16.9248 15.7444 16.3699 16.3211 15.7767 16.8549C15.1596 17.4125 14.3846 17.5555 13.5666 17.4887C12.0358 17.36 10.6724 16.7405 9.35682 16.0113C7.73988 15.1153 6.29517 13.9905 5.03702 12.637C3.49663 10.9879 2.21935 9.16258 1.42045 7.03696C1.15256 6.32206 0.937289 5.58334 0.903802 4.80648C0.903802 4.76835 0.88945 4.72546 0.879883 4.68733V4.4395C0.908586 4.2298 0.922937 4.0201 0.961208 3.81516C1.06167 3.30044 1.29129 2.85243 1.65965 2.47592C2.14281 1.98026 2.61163 1.46554 3.13785 1.01277C3.93675 0.326471 4.79783 0.331237 5.56324 1.04613C6.37649 1.80869 7.16104 2.60937 7.92167 3.42435C8.48616 4.02963 8.48138 4.95899 7.93602 5.58334C7.5294 6.04563 7.07972 6.4698 6.64439 6.90827C6.56306 6.9893 6.53914 7.04172 6.59655 7.15611C7.03666 8.03781 7.65378 8.79083 8.32351 9.50096C9.0076 10.2302 9.76344 10.8831 10.615 11.4264C10.8542 11.5789 11.1173 11.7076 11.3852 11.8554C11.677 11.5599 11.9592 11.2739 12.2462 10.9879C12.4376 10.7973 12.6337 10.6067 12.8394 10.4351C13.4566 9.92513 14.3846 9.9156 14.9635 10.4637C15.8054 11.2644 16.633 12.0889 17.4319 12.9325C18.0203 13.5568 18.0299 14.5052 17.4558 15.1486Z" fill="#0F0F0F"/>
</svg>
