<svg width="65" height="65" viewBox="0 0 65 65" fill="none" xmlns="http://www.w3.org/2000/svg">
<circle cx="32.5996" cy="32.627" r="32" fill="#22C59C"/>
<path fill-rule="evenodd" clip-rule="evenodd" d="M17.6001 32.6262C17.6001 38.5635 21.0501 43.6945 26.0536 46.1254L18.8986 26.5221C18.067 28.3868 17.6001 30.4512 17.6001 32.6262ZM42.7256 31.8696C42.7256 30.0152 42.059 28.7318 41.489 27.7333C40.7287 26.4968 40.0153 25.4505 40.0153 24.2148C40.0153 22.8358 41.0606 21.5523 42.5343 21.5523C42.6009 21.5523 42.6637 21.5608 42.7284 21.5645C40.0603 19.1195 36.5043 17.627 32.5995 17.627C27.3588 17.627 22.7491 20.3157 20.0669 24.3874C20.4194 24.3986 20.7513 24.4052 21.0325 24.4052C22.601 24.4052 25.0301 24.2148 25.0301 24.2148C25.8382 24.167 25.9338 25.3558 25.1257 25.4505C25.1257 25.4505 24.3129 25.5461 23.4091 25.5939L28.871 41.841L32.1542 31.9962L29.8179 25.5939C29.0098 25.5461 28.2439 25.4505 28.2439 25.4505C27.4357 25.4027 27.5304 24.167 28.3395 24.2148C28.3395 24.2148 30.8164 24.4052 32.2902 24.4052C33.8586 24.4052 36.2877 24.2148 36.2877 24.2148C37.0968 24.167 37.1915 25.3558 36.3833 25.4505C36.3833 25.4505 35.5696 25.5461 34.6667 25.5939L40.0874 41.7173L41.5846 36.7184C42.2315 34.6428 42.7256 33.1531 42.7256 31.8696ZM32.863 33.9383L28.362 47.0157C29.7064 47.4113 31.1276 47.627 32.5995 47.627C34.3461 47.627 36.0215 47.3251 37.5805 46.7766C37.5412 46.7119 37.5037 46.6444 37.4737 46.5704L32.863 33.9383ZM45.762 25.4301C45.8267 25.9083 45.8633 26.4202 45.8633 26.9724C45.8633 28.4939 45.5783 30.2049 44.7223 32.3452L40.1407 45.5913C44.6004 42.9916 47.5995 38.1597 47.5995 32.6265C47.5995 30.0183 46.933 27.5667 45.762 25.4301Z" fill="white"/>
</svg>
